<?xml version="1.0" encoding="UTF-8"?>
<svg width="123px" height="62px" viewBox="0 0 123 62" version="1.1" xmlns="http://www.w3.org/2000/svg" xmlns:xlink="http://www.w3.org/1999/xlink">
    <!-- Generator: Sketch 45.1 (43504) - http://www.bohemiancoding.com/sketch -->
    <title>Stacked Logo Copy 4</title>
    <desc>Created with Sketch.</desc>
    <defs></defs>
    <g id="Page-1" stroke="none" stroke-width="1" fill="none" fill-rule="evenodd">
        <g id="Stacked-Logo" transform="translate(-1044.000000, -41.000000)" fill="#FAFBFD">
            <g id="Stacked-Logo-Copy-4" transform="translate(1044.281250, 40.664062)">
                <g id="Group" transform="translate(42.769385, 0.162220)" fill-rule="nonzero">
                    <path d="M26.5166341,18.0106125 C26.5166341,13.3128665 22.7083585,9.50459087 18.0106125,9.50459087 C13.3128665,9.50459087 9.50459087,13.3128665 9.50459087,18.0106125 C9.50459087,22.7083585 13.3128665,26.5166341 18.0106125,26.5166341 C22.7083585,26.5166341 26.5166341,22.7083585 26.5166341,18.0106125 Z M12.5580345,18.0106125 C12.5580345,14.9992368 14.9992368,12.5580345 18.0106125,12.5580345 C21.0219881,12.5580345 23.4631905,14.9992368 23.4631905,18.0106125 C23.4631905,21.0219881 21.0219881,23.4631905 18.0106125,23.4631905 C14.9992368,23.4631905 12.5580345,21.0219881 12.5580345,18.0106125 Z" id="Oval-6"></path>
                    <path d="M31.1695006,18.0106125 C31.1695006,10.7431592 25.2780657,4.85172434 18.0106125,4.85172434 C10.7431592,4.85172434 4.85172434,10.7431592 4.85172434,18.0106125 C4.85172434,25.2780657 10.7431592,31.1695006 18.0106125,31.1695006 C25.2780657,31.1695006 31.1695006,25.2780657 31.1695006,18.0106125 Z M7.905168,18.0106125 C7.905168,12.4295296 12.4295296,7.905168 18.0106125,7.905168 C23.5916954,7.905168 28.116057,12.4295296 28.116057,18.0106125 C28.116057,23.5916954 23.5916954,28.116057 18.0106125,28.116057 C12.4295296,28.116057 7.905168,23.5916954 7.905168,18.0106125 Z" id="Oval-6" opacity="0.75"></path>
                    <path d="M35.8223672,18.0106125 C35.8223672,8.17345202 27.847773,0.198857814 18.0106125,0.198857814 C8.17345202,0.198857814 0.198857814,8.17345202 0.198857814,18.0106125 C0.198857814,27.847773 8.17345202,35.8223672 18.0106125,35.8223672 C27.847773,35.8223672 35.8223672,27.847773 35.8223672,18.0106125 Z M3.25230147,18.0106125 C3.25230147,9.85982238 9.85982238,3.25230147 18.0106125,3.25230147 C26.1614026,3.25230147 32.7689235,9.85982238 32.7689235,18.0106125 C32.7689235,26.1614026 26.1614026,32.7689235 18.0106125,32.7689235 C9.85982238,32.7689235 3.25230147,26.1614026 3.25230147,18.0106125 Z" id="Oval-6" opacity="0.35"></path>
                </g>
                <path d="M2.84217094e-14,41.0669933 L2.42533964,41.0669933 L2.42533964,61.5091417 L2.84217094e-14,61.5091417 L2.84217094e-14,41.0669933 Z M7.10278038,51.2014483 C7.10278038,50.5854859 7.08353184,50.0080299 7.0450342,49.4690628 C7.00653655,48.9300957 6.98728801,48.4392581 6.98728801,47.9965352 L9.12389675,47.9965352 C9.12389675,48.3622628 9.13352101,48.727985 9.15276984,49.0937126 C9.17201866,49.4594403 9.18164293,49.8347867 9.18164293,50.2197632 L9.23938911,50.2197632 C9.3933797,49.8925332 9.60992571,49.5749323 9.88903366,49.2669512 C10.1681416,48.95897 10.5001788,48.6846784 10.8851553,48.4440681 C11.2701318,48.2034578 11.7032238,48.0109724 12.1844444,47.8666062 C12.665665,47.7222401 13.1853754,47.6500581 13.7435913,47.6500581 C14.6290372,47.6500581 15.3941664,47.7847978 16.039002,48.0542813 C16.6838376,48.3237649 17.2179845,48.6991113 17.6414586,49.1803319 C18.0649327,49.6615525 18.3777214,50.2438207 18.579834,50.9271539 C18.7819467,51.6104871 18.8830015,52.3563678 18.8830015,53.1648184 L18.8830015,61.5091417 L16.6309004,61.5091417 L16.6309004,53.3958032 C16.6309004,52.2601226 16.3806694,51.3650657 15.8802,50.7106057 C15.3797306,50.0561457 14.600165,49.7289206 13.5414797,49.7289206 C12.8100244,49.7289206 12.1796349,49.8540361 11.6502922,50.1042708 C11.1209496,50.3545055 10.6878575,50.7106034 10.3510031,51.1725752 C10.0141487,51.6345469 9.76391775,52.1831302 9.60030275,52.8183413 C9.43668775,53.4535525 9.35488147,54.156124 9.35488147,54.926077 L9.35488147,61.5091417 L7.10278038,61.5091417 L7.10278038,51.2014483 Z M24.3111426,49.9021592 L21.3660873,49.9021592 L21.3660873,47.9965352 L24.3111426,47.9965352 L24.3111426,44.9648606 C24.3111426,44.1371612 24.3881367,43.3816562 24.5421273,42.698323 C24.6961179,42.0149897 24.9607853,41.4230973 25.3361373,40.9226279 C25.7114894,40.4221585 26.2071392,40.0323756 26.8231015,39.7532677 C27.4390639,39.4741597 28.199381,39.3346079 29.1040757,39.3346079 C29.392808,39.3346079 29.7007846,39.3634807 30.0280146,39.4212271 C30.3552446,39.4789736 30.6247241,39.565592 30.8364612,39.681085 L30.5188572,41.7022013 C29.9798901,41.5097131 29.4698039,41.4134704 28.9885833,41.4134704 C28.4111186,41.4134704 27.9587781,41.5145252 27.6315481,41.7166379 C27.3043181,41.9187505 27.0588992,42.1978543 26.8952842,42.5539575 C26.7316692,42.9100607 26.6354266,43.3383406 26.6065533,43.8388101 C26.5776801,44.3392795 26.5632437,44.8782384 26.5632437,45.4557031 L26.5632437,47.9965352 L29.8547761,47.9965352 L29.8547761,49.9021592 L26.5632437,49.9021592 L26.5632437,61.5091417 L24.3111426,61.5091417 L24.3111426,49.9021592 Z M32.4533542,39.681085 L34.7054553,39.681085 L34.7054553,61.5091417 L32.4533542,61.5091417 L32.4533542,39.681085 Z M50.9610056,58.3042286 C50.9610056,58.920191 50.9802541,59.497647 51.0187517,60.0366141 C51.0572494,60.5755811 51.0764979,61.0664188 51.0764979,61.5091417 L48.9398892,61.5091417 C48.9398892,61.1434141 48.9302649,60.7776919 48.9110161,60.4119643 C48.8917673,60.0462366 48.882143,59.6708902 48.882143,59.2859137 L48.8243968,59.2859137 C48.6704062,59.6131437 48.4538602,59.9307445 48.1747523,60.2387257 C47.8956443,60.5467069 47.5636071,60.8209985 47.1786306,61.0616088 C46.7936542,61.3022191 46.3605621,61.4947045 45.8793415,61.6390706 C45.398121,61.7834368 44.8784105,61.8556188 44.3201946,61.8556188 C43.4347487,61.8556188 42.6696195,61.7208791 42.0247839,61.4513955 C41.3799483,61.181912 40.8458015,60.8065656 40.4223274,60.325345 C39.9988532,59.8441244 39.6860645,59.2618562 39.4839519,58.578523 C39.2818392,57.8951898 39.1807844,57.149309 39.1807844,56.3408584 L39.1807844,47.9965352 L41.4328855,47.9965352 L41.4328855,56.1098737 C41.4328855,57.2455543 41.6831165,58.1406112 42.1835859,58.7950712 C42.6840553,59.4495312 43.463621,59.7767563 44.5223063,59.7767563 C45.2537616,59.7767563 45.8841511,59.6516408 46.4134937,59.4014061 C46.9428364,59.1511714 47.3759284,58.7950735 47.7127828,58.3331017 C48.0496372,57.87113 48.2998682,57.3225467 48.4634832,56.6873355 C48.6270982,56.0521244 48.7089045,55.3495528 48.7089045,54.5795999 L48.7089045,47.9965352 L50.9610056,47.9965352 L50.9610056,58.3042286 Z M67.303175,59.054929 C66.4947245,60.0943655 65.6092918,60.8209977 64.6468507,61.2348474 C63.6844095,61.6486971 62.5679945,61.8556188 61.2975721,61.8556188 C60.2388868,61.8556188 59.2860844,61.6679456 58.4391361,61.2925935 C57.5921879,60.9172415 56.87518,60.4119674 56.2880908,59.7767563 C55.7010017,59.1415451 55.2486612,58.3908522 54.9310556,57.5246552 C54.61345,56.6584581 54.4546496,55.7345284 54.4546496,54.7528384 C54.4546496,53.713402 54.6278864,52.7557874 54.9743652,51.8799659 C55.320844,51.0041444 55.8020574,50.2534516 56.4180197,49.6278648 C57.0339821,49.002278 57.7654264,48.5162525 58.6123747,48.1697737 C59.4593229,47.8232949 60.3832526,47.6500581 61.3841914,47.6500581 C62.3273837,47.6500581 63.1935678,47.8088585 63.9827696,48.1264641 C64.7719713,48.4440697 65.4504822,48.9060345 66.0183225,49.5123724 C66.5861628,50.1187104 67.024067,50.859779 67.3320481,51.7356004 C67.6400293,52.6114219 67.7940176,53.6075336 67.7940176,54.7239653 L67.7940176,55.4457926 L56.8799892,55.4457926 C56.9184868,56.0232573 57.0580387,56.5766527 57.298649,57.1059954 C57.5392593,57.635338 57.852048,58.0973028 58.2370245,58.4919037 C58.6220009,58.8865046 59.0743415,59.1992933 59.5940598,59.4302792 C60.113778,59.6612651 60.6816098,59.7767563 61.2975721,59.7767563 C62.2792621,59.7767563 63.1069491,59.6035195 63.7806579,59.2570406 C64.4543668,58.9105618 65.0606956,58.4004756 65.5996627,57.7267668 L67.303175,59.054929 Z M65.3686779,53.5401686 C65.3301803,52.3852392 64.9548339,51.4613095 64.2426274,50.7683519 C63.5304209,50.0753942 62.5487457,49.7289206 61.2975721,49.7289206 C60.0463986,49.7289206 59.0358505,50.0753942 58.2658976,50.7683519 C57.4959446,51.4613095 57.0339798,52.3852392 56.8799892,53.5401686 L65.3686779,53.5401686 Z M71.2876616,51.2014483 C71.2876616,50.5854859 71.2684131,50.0080299 71.2299154,49.4690628 C71.1914178,48.9300957 71.1721692,48.4392581 71.1721692,47.9965352 L73.308778,47.9965352 C73.308778,48.3622628 73.3184022,48.727985 73.3376511,49.0937126 C73.3568999,49.4594403 73.3665241,49.8347867 73.3665241,50.2197632 L73.4242703,50.2197632 C73.5782609,49.8925332 73.7948069,49.5749323 74.0739149,49.2669512 C74.3530228,48.95897 74.68506,48.6846784 75.0700365,48.4440681 C75.455013,48.2034578 75.888105,48.0109724 76.3693256,47.8666062 C76.8505462,47.7222401 77.3702566,47.6500581 77.9284725,47.6500581 C78.8139184,47.6500581 79.5790477,47.7847978 80.2238832,48.0542813 C80.8687188,48.3237649 81.4028657,48.6991113 81.8263398,49.1803319 C82.2498139,49.6615525 82.5626026,50.2438207 82.7647153,50.9271539 C82.9668279,51.6104871 83.0678827,52.3563678 83.0678827,53.1648184 L83.0678827,61.5091417 L80.8157816,61.5091417 L80.8157816,53.3958032 C80.8157816,52.2601226 80.5655507,51.3650657 80.0650812,50.7106057 C79.5646118,50.0561457 78.7850462,49.7289206 77.7263609,49.7289206 C76.9949056,49.7289206 76.3645161,49.8540361 75.8351734,50.1042708 C75.3058308,50.3545055 74.8727387,50.7106034 74.5358843,51.1725752 C74.1990299,51.6345469 73.948799,52.1831302 73.785184,52.8183413 C73.621569,53.4535525 73.5397627,54.156124 73.5397627,54.926077 L73.5397627,61.5091417 L71.2876616,61.5091417 L71.2876616,51.2014483 Z M94.7326115,49.9021592 L90.7481249,49.9021592 L90.7481249,56.6584624 C90.7481249,57.1011854 90.7577492,57.5102168 90.776998,57.8855688 C90.7962468,58.2609209 90.873241,58.588146 91.0079827,58.8672539 C91.1427245,59.1463618 91.3448341,59.36772 91.6143176,59.531335 C91.8838012,59.69495 92.2687719,59.7767563 92.7692413,59.7767563 C93.0964713,59.7767563 93.4333206,59.7382592 93.7797995,59.6612639 C94.1262783,59.5842686 94.4535034,59.4687774 94.7614845,59.3147868 L94.8481038,61.3647763 C94.4631274,61.5380157 94.0348475,61.6631312 93.5632513,61.7401265 C93.0916551,61.8171217 92.6441267,61.8556188 92.2206525,61.8556188 C91.412202,61.8556188 90.767376,61.7497519 90.2861554,61.5380148 C89.8049349,61.3262778 89.4295884,61.0279255 89.1601049,60.642949 C88.8906214,60.2579725 88.7125724,59.7815713 88.6259527,59.213731 C88.539333,58.6458907 88.4960238,58.0155012 88.4960238,57.3225435 L88.4960238,49.9021592 L85.5509685,49.9021592 L85.5509685,47.9965352 L88.4960238,47.9965352 L88.4960238,44.1564141 L90.7481249,44.1564141 L90.7481249,47.9965352 L94.7326115,47.9965352 L94.7326115,49.9021592 Z M97.7065398,47.9965352 L99.9586409,47.9965352 L99.9586409,61.5091417 L97.7065398,61.5091417 L97.7065398,47.9965352 Z M97.1868242,42.7127595 C97.1868242,42.2700366 97.3456246,41.8850659 97.6632302,41.5578359 C97.9808358,41.2306059 98.3706186,41.0669933 98.8325904,41.0669933 C99.2945621,41.0669933 99.684345,41.2306059 100.001951,41.5578359 C100.319556,41.8850659 100.478357,42.2700366 100.478357,42.7127595 C100.478357,43.1939801 100.324368,43.5885751 100.016387,43.8965562 C99.7084059,44.2045374 99.313811,44.3585257 98.8325904,44.3585257 C98.3513698,44.3585257 97.9567748,44.2045374 97.6487936,43.8965562 C97.3408125,43.5885751 97.1868242,43.1939801 97.1868242,42.7127595 Z M104.260731,49.7289206 C104.953689,49.0167141 105.776564,48.4921916 106.729381,48.1553372 C107.682198,47.8184827 108.649436,47.6500581 109.631126,47.6500581 C111.633004,47.6500581 113.076644,48.1216472 113.96209,49.0648395 C114.847536,50.0080319 115.290252,51.4420477 115.290252,53.3669301 L115.290252,59.1704214 C115.290252,59.5553978 115.309501,59.9548049 115.347998,60.3686546 C115.386496,60.7825043 115.434617,61.1626629 115.492364,61.5091417 L113.326882,61.5091417 C113.249887,61.2011605 113.206578,60.8594991 113.196953,60.484147 C113.187329,60.1087949 113.182517,59.7767577 113.182517,59.4880254 L113.12477,59.4880254 C112.682047,60.180983 112.090155,60.7488148 111.349075,61.1915377 C110.607996,61.6342607 109.717751,61.8556188 108.678314,61.8556188 C107.985357,61.8556188 107.335719,61.7690004 106.729381,61.595761 C106.123043,61.4225216 105.593708,61.1674785 105.141361,60.8306241 C104.689013,60.4937697 104.328103,60.075114 104.05862,59.5746446 C103.789136,59.0741752 103.654397,58.4967192 103.654397,57.8422592 C103.654397,56.7258274 103.943125,55.8500191 104.520589,55.2148079 C105.098054,54.5795967 105.815062,54.1080076 106.671635,53.8000264 C107.528207,53.4920453 108.452137,53.2995599 109.443451,53.2225646 C110.434766,53.1455693 111.344259,53.1070723 112.171958,53.1070723 L113.038151,53.1070723 L113.038151,52.702849 C113.038151,51.721159 112.744611,50.9800904 112.157522,50.479621 C111.570433,49.9791516 110.747558,49.7289206 109.688873,49.7289206 C108.957417,49.7289206 108.240409,49.849224 107.537827,50.0898342 C106.835245,50.3304445 106.21448,50.7009788 105.675513,51.2014483 L104.260731,49.7289206 Z M110.78605,55.0126963 C109.342388,55.0126963 108.1971,55.2148059 107.350152,55.6190312 C106.503204,56.0232565 106.079736,56.6873309 106.079736,57.6112744 C106.079736,58.4582227 106.363652,59.0597394 106.931492,59.4158426 C107.499333,59.7719459 108.206716,59.9499948 109.053665,59.9499948 C109.708125,59.9499948 110.280768,59.8393157 110.771613,59.6179543 C111.262458,59.3965928 111.67149,59.1030526 111.99872,58.737325 C112.32595,58.3715973 112.576181,57.9433174 112.74942,57.4524724 C112.92266,56.9616274 113.018902,56.4371049 113.038151,55.878889 L113.038151,55.0126963 L110.78605,55.0126963 Z M119.621216,39.681085 L121.873317,39.681085 L121.873317,61.5091417 L119.621216,61.5091417 L119.621216,39.681085 Z" id="Influential"></path>
            </g>
        </g>
    </g>
</svg>